<?xml version="1.0" encoding="utf-8"?>

<!DOCTYPE svg PUBLIC "-//W3C//DTD SVG 1.1//EN" "http://www.w3.org/Graphics/SVG/1.1/DTD/svg11.dtd">
<svg version="1.1"
	 id="Calque_1" inkscape:version="0.47 r22583" sodipodi:docname="LogoESIR_vectoriel.svg" xmlns:dc="http://purl.org/dc/elements/1.1/" xmlns:cc="http://creativecommons.org/ns#" xmlns:rdf="http://www.w3.org/1999/02/22-rdf-syntax-ns#" xmlns:svg="http://www.w3.org/2000/svg" xmlns:sodipodi="http://sodipodi.sourceforge.net/DTD/sodipodi-0.dtd" xmlns:inkscape="http://www.inkscape.org/namespaces/inkscape"
	 xmlns="http://www.w3.org/2000/svg" xmlns:xlink="http://www.w3.org/1999/xlink" x="0px" y="0px" width="9541.316px"
	 height="4320.377px" viewBox="0 0 9541.316 4320.377" enable-background="new 0 0 9541.316 4320.377" xml:space="preserve">
<defs>
	
	
		<inkscape:perspective  id="perspective101" inkscape:vp_y="0 : 1000 : 0" inkscape:vp_z="1135 : 337.5 : 1" inkscape:vp_x="0 : 337.5 : 1" sodipodi:type="inkscape:persp3d" inkscape:persp3d-origin="567.5 : 225 : 1">
		</inkscape:perspective>
</defs>
<sodipodi:namedview  id="namedview95" inkscape:window-maximized="1" guidetolerance="10" bordercolor="#666666" borderopacity="1" gridtolerance="10" inkscape:zoom="0.043703704" inkscape:cy="2426.6577" showgrid="false" pagecolor="#ffffff" objecttolerance="10" inkscape:cx="8453.8477" inkscape:current-layer="Calque_1" inkscape:window-y="-8" inkscape:window-x="-8" inkscape:window-height="838" inkscape:window-width="1440" inkscape:snap-page="true" inkscape:pageopacity="0" inkscape:pageshadow="2">
	</sodipodi:namedview>
<g id="g3" transform="matrix(69.090201,0,0,69.090201,-5433.9067,-1997.519)">
	<g id="g5">
		<path id="path7" d="M93.91,72.352c-2.141-1.778-3.348-4.172-3.627-7.18h32.453l0.049-1.992c0-6.039-1.924-10.762-5.768-14.172
			c-3.876-3.431-9.144-5.148-15.807-5.148c-6.604,0-11.904,1.768-15.902,5.299c-3.969,3.585-5.951,8.27-5.951,14.061
			c0,5.838,2.046,10.521,6.139,14.057c3.217,2.758,7.271,4.418,12.138,5.008v-7.94C96.238,73.906,94.996,73.242,93.91,72.352z
			 M92.468,55.439c0.65-0.828,1.434-1.536,2.348-2.125c0.912-0.588,1.93-1.038,3.046-1.354c1.116-0.313,2.31-0.469,3.579-0.469
			c5.581,0,9.098,2.254,10.554,6.766H90.98C91.321,57.203,91.817,56.264,92.468,55.439L92.468,55.439z"/>
		<path id="path9" d="M158.224,70.298c0-2.753-0.963-4.941-2.885-6.568c-1.922-1.625-5.658-3.403-11.206-5.331
			c-4.029-1.377-6.045-2.766-6.045-4.168c0-0.8,0.341-1.458,1.023-1.971c0.682-0.512,1.502-0.77,2.465-0.77
			c2.014,0,3.703,1.115,5.066,3.346l8.648-3.722c-2.818-4.837-7.129-7.255-12.926-7.255c-3.937,0-7.284,1.041-10.041,3.119
			c-2.698,2.081-4.047,4.712-4.047,7.895c0,2.406,0.791,4.373,2.372,5.9c1.24,1.203,3.378,2.406,6.415,3.609
			c1.085,0.426,2.154,0.84,3.211,1.24c1.051,0.4,2.105,0.813,3.159,1.238c2.729,1.305,4.093,2.709,4.093,4.213
			c0,0.219-0.031,0.416-0.056,0.619c3.037,0,6.647,0,10.658,0C158.187,71.241,158.224,70.776,158.224,70.298L158.224,70.298z"/>
		<path id="path11" d="M176.435,44.875h-10.459v26.819c3.35,0,6.861,0,10.459,0V44.875z"/>
		<path id="path13" d="M197.084,62.503c0-6.966,2.854-10.448,8.555-10.448c1.894,0,3.83,0.576,5.814,1.729l4.786-7.745
			c-3.005-1.452-5.888-2.18-8.646-2.18c-2.078,0-3.877,0.314-5.396,0.94c-1.487,0.601-3.192,1.716-5.114,3.347v-3.272h-10.462
			v26.819c3.5,0,7.011,0,10.462,0L197.084,62.503L197.084,62.503L197.084,62.503z"/>
	</g>
	<path id="path15" fill="#00B5DD" d="M171.525,40.382c1.52,0,2.805-0.518,3.852-1.554c1.073-1.035,1.607-2.287,1.607-3.759
		c0-1.468-0.534-2.711-1.607-3.722c-1.072-1.037-2.369-1.555-3.89-1.555c-1.494,0-2.78,0.518-3.853,1.555
		c-1.07,1.035-1.606,2.264-1.606,3.686c0,1.494,0.536,2.76,1.606,3.795C168.707,39.865,170.006,40.382,171.525,40.382
		L171.525,40.382z"/>
	
		<circle id="circle17" sodipodi:cx="174.584" sodipodi:rx="4.5650001" sodipodi:ry="4.5650001" sodipodi:cy="39.957001" fill="#97BF0D" cx="186.092" cy="36.063" r="4.565">
	</circle>
	
		<circle id="circle19" sodipodi:cx="146.099" sodipodi:rx="3.8940001" sodipodi:ry="3.8940001" sodipodi:cy="40.908001" fill="#F18E00" cx="157.607" cy="37.014" r="3.894">
	</circle>
	
		<circle id="circle21" sodipodi:cx="136.161" sodipodi:rx="1.309" sodipodi:ry="1.309" sodipodi:cy="40.801998" fill="#7E388A" cx="147.669" cy="36.908" r="1.309">
	</circle>
	
		<circle id="circle23" sodipodi:cx="185.435" sodipodi:rx="1.723" sodipodi:ry="1.723" sodipodi:cy="39.750999" fill="#E3007E" cx="196.943" cy="35.857" r="1.723">
	</circle>
	<path id="path25" d="M103.509,82.042v-5.686h4.017v0.961h-2.924v1.262h2.721v0.957h-2.721v1.547h3.028v0.959H103.509
		L103.509,82.042L103.509,82.042z"/>
	<path id="path27" d="M112.465,79.952l1.061,0.353c-0.162,0.622-0.435,1.082-0.811,1.384c-0.379,0.301-0.859,0.452-1.44,0.452
		c-0.721,0-1.312-0.258-1.774-0.774c-0.465-0.515-0.695-1.221-0.695-2.117c0-0.944,0.233-1.68,0.698-2.202
		c0.467-0.524,1.079-0.786,1.837-0.786c0.662,0,1.201,0.204,1.617,0.616c0.246,0.243,0.432,0.593,0.555,1.048l-1.086,0.271
		c-0.063-0.297-0.195-0.529-0.4-0.699c-0.202-0.17-0.449-0.256-0.74-0.256c-0.402,0-0.727,0.151-0.977,0.453
		c-0.25,0.305-0.375,0.793-0.375,1.471c0,0.719,0.122,1.23,0.367,1.537c0.248,0.305,0.568,0.457,0.961,0.457
		c0.29,0,0.543-0.098,0.751-0.291C112.222,80.675,112.374,80.366,112.465,79.952L112.465,79.952L112.465,79.952z"/>
	<path id="path29" d="M114.68,79.239c0-0.582,0.083-1.067,0.25-1.461c0.122-0.289,0.29-0.551,0.503-0.781
		c0.213-0.229,0.447-0.398,0.701-0.512c0.338-0.148,0.728-0.224,1.17-0.224c0.797,0,1.436,0.261,1.916,0.778
		c0.479,0.521,0.717,1.242,0.717,2.168c0,0.918-0.236,1.638-0.713,2.156c-0.477,0.518-1.11,0.777-1.907,0.777
		c-0.807,0-1.448-0.258-1.923-0.773C114.919,80.852,114.68,80.142,114.68,79.239L114.68,79.239L114.68,79.239z M115.81,79.198
		c0,0.645,0.139,1.131,0.424,1.465c0.283,0.332,0.643,0.498,1.079,0.498c0.436,0,0.795-0.164,1.073-0.494
		c0.28-0.33,0.421-0.824,0.421-1.484c0-0.65-0.137-1.137-0.409-1.459c-0.271-0.32-0.635-0.479-1.085-0.479
		c-0.451,0-0.814,0.16-1.091,0.486C115.948,78.054,115.81,78.54,115.81,79.198L115.81,79.198z"/>
	<path id="path31" d="M121.261,82.042v-5.639h1.093v4.68h2.722v0.959H121.261z"/>
	<path id="path33" d="M126.295,82.042v-5.686h4.02v0.961h-2.924v1.262h2.719v0.957h-2.719v1.547h3.027v0.959H126.295L126.295,82.042
		L126.295,82.042z"/>
	<path id="path35" d="M134.049,80.195l1.064-0.109c0.064,0.375,0.195,0.65,0.391,0.826c0.195,0.176,0.461,0.264,0.793,0.264
		c0.354,0,0.618-0.078,0.798-0.234c0.178-0.156,0.266-0.34,0.266-0.549c0-0.135-0.035-0.25-0.112-0.344
		c-0.073-0.094-0.204-0.176-0.393-0.245c-0.127-0.048-0.42-0.13-0.875-0.249c-0.588-0.152-1-0.34-1.236-0.563
		c-0.332-0.313-0.498-0.694-0.498-1.146c0-0.289,0.076-0.562,0.234-0.813c0.156-0.252,0.381-0.442,0.676-0.576
		c0.293-0.131,0.65-0.196,1.068-0.196c0.68,0,1.19,0.155,1.535,0.47c0.342,0.313,0.523,0.729,0.542,1.254l-1.094,0.049
		c-0.048-0.291-0.147-0.502-0.304-0.631c-0.152-0.127-0.385-0.189-0.692-0.189c-0.317,0-0.567,0.068-0.745,0.203
		c-0.117,0.089-0.176,0.207-0.176,0.354c0,0.135,0.057,0.251,0.163,0.348c0.138,0.119,0.475,0.246,1.006,0.379
		c0.532,0.134,0.926,0.267,1.182,0.41c0.255,0.142,0.452,0.334,0.597,0.576c0.146,0.244,0.217,0.547,0.217,0.906
		c0,0.324-0.084,0.631-0.258,0.916c-0.174,0.283-0.418,0.496-0.731,0.635c-0.315,0.139-0.708,0.207-1.18,0.207
		c-0.686,0-1.211-0.166-1.579-0.498C134.34,81.317,134.119,80.827,134.049,80.195L134.049,80.195L134.049,80.195z"/>
	<path id="path37" d="M139.808,76.358h1.096v3.08c0,0.489,0.012,0.805,0.037,0.95c0.049,0.231,0.16,0.42,0.336,0.562
		c0.176,0.141,0.418,0.211,0.723,0.211c0.31,0,0.543-0.065,0.703-0.198c0.156-0.134,0.251-0.298,0.283-0.492
		c0.033-0.194,0.05-0.517,0.05-0.966v-3.146h1.095v2.986c0,0.684-0.031,1.167-0.089,1.445c-0.06,0.283-0.169,0.521-0.327,0.717
		c-0.16,0.191-0.373,0.35-0.641,0.462c-0.265,0.116-0.612,0.174-1.041,0.174c-0.518,0-0.91-0.063-1.178-0.188
		c-0.268-0.125-0.479-0.289-0.633-0.488c-0.156-0.201-0.258-0.411-0.309-0.631c-0.07-0.327-0.105-0.807-0.105-1.444L139.808,76.358
		L139.808,76.358z"/>
	<path id="path39" d="M145.721,82.042v-5.686h1.757c0.666,0,1.098,0.027,1.301,0.084c0.311,0.086,0.572,0.272,0.781,0.557
		c0.209,0.287,0.313,0.656,0.313,1.107c0,0.35-0.061,0.645-0.182,0.881c-0.119,0.238-0.273,0.424-0.459,0.562
		c-0.188,0.137-0.375,0.226-0.568,0.271c-0.26,0.055-0.641,0.082-1.135,0.082h-0.714v2.145h-1.094V82.042L145.721,82.042
		L145.721,82.042z M146.815,77.321v1.613h0.601c0.43,0,0.72-0.027,0.865-0.091c0.145-0.06,0.257-0.151,0.34-0.278
		c0.084-0.128,0.125-0.273,0.125-0.441c0-0.207-0.059-0.379-0.174-0.512c-0.117-0.136-0.262-0.22-0.44-0.252
		c-0.13-0.025-0.393-0.039-0.787-0.039L146.815,77.321L146.815,77.321L146.815,77.321z"/>
	<path id="path41" d="M151.213,82.042v-5.686h4.017v0.961h-2.923v1.262h2.721v0.957h-2.721v1.547h3.027v0.959H151.213
		L151.213,82.042L151.213,82.042z"/>
	<path id="path43" d="M156.704,82.042v-5.686h2.302c0.58,0,1.002,0.051,1.264,0.152c0.263,0.104,0.472,0.283,0.632,0.545
		c0.157,0.262,0.235,0.559,0.235,0.896c0,0.426-0.121,0.779-0.359,1.056c-0.238,0.278-0.596,0.454-1.07,0.526
		c0.233,0.146,0.432,0.303,0.584,0.478c0.155,0.173,0.362,0.479,0.625,0.923l0.659,1.109h-1.308l-0.791-1.238
		c-0.281-0.439-0.475-0.719-0.577-0.836c-0.104-0.113-0.212-0.193-0.328-0.236c-0.117-0.041-0.301-0.064-0.551-0.064h-0.224v2.375
		H156.704L156.704,82.042L156.704,82.042z M157.797,78.761h0.81c0.526,0,0.854-0.022,0.985-0.067
		c0.129-0.047,0.232-0.127,0.307-0.24c0.074-0.114,0.111-0.256,0.111-0.426c0-0.191-0.051-0.349-0.146-0.465
		c-0.1-0.117-0.234-0.193-0.414-0.226c-0.088-0.013-0.355-0.019-0.798-0.019h-0.854L157.797,78.761L157.797,78.761L157.797,78.761z"
		/>
	<path id="path45" d="M162.572,82.042v-5.686h1.096v5.686H162.572L162.572,82.042z"/>
	<path id="path47" d="M165.148,82.042v-5.686h4.02v0.961h-2.924v1.262h2.721v0.957h-2.721v1.547h3.027v0.959H165.148L165.148,82.042
		z"/>
	<path id="path49" d="M170.629,76.358h1.096v3.08c0,0.489,0.014,0.805,0.041,0.95c0.048,0.231,0.158,0.42,0.334,0.562
		c0.177,0.141,0.418,0.211,0.724,0.211c0.312,0,0.545-0.065,0.702-0.198c0.156-0.134,0.253-0.298,0.285-0.492
		c0.031-0.194,0.048-0.517,0.048-0.966v-3.146h1.095v2.986c0,0.684-0.027,1.167-0.09,1.445c-0.059,0.283-0.168,0.521-0.327,0.717
		c-0.157,0.191-0.368,0.35-0.637,0.462c-0.267,0.116-0.615,0.174-1.042,0.174c-0.52,0-0.911-0.063-1.18-0.188
		c-0.268-0.125-0.479-0.289-0.633-0.488c-0.156-0.201-0.259-0.411-0.309-0.631c-0.07-0.327-0.107-0.807-0.107-1.444L170.629,76.358
		L170.629,76.358z"/>
	<path id="path51" d="M176.549,82.042v-5.686h2.301c0.582,0,1.002,0.051,1.265,0.152c0.263,0.104,0.472,0.283,0.629,0.545
		c0.159,0.262,0.238,0.559,0.238,0.896c0,0.426-0.119,0.779-0.359,1.056c-0.237,0.278-0.597,0.454-1.069,0.526
		c0.233,0.146,0.432,0.303,0.584,0.478c0.154,0.173,0.36,0.479,0.625,0.923l0.66,1.109h-1.31l-0.792-1.238
		c-0.279-0.439-0.473-0.719-0.576-0.836c-0.104-0.113-0.212-0.193-0.328-0.236c-0.115-0.041-0.3-0.064-0.552-0.064h-0.222v2.375
		H176.549L176.549,82.042z M177.642,78.761h0.809c0.525,0,0.854-0.022,0.986-0.067c0.128-0.047,0.23-0.127,0.305-0.24
		c0.075-0.114,0.111-0.256,0.111-0.426c0-0.191-0.049-0.349-0.146-0.465c-0.099-0.117-0.234-0.193-0.414-0.226
		c-0.089-0.013-0.355-0.019-0.798-0.019h-0.854v1.442L177.642,78.761L177.642,78.761L177.642,78.761z"/>
	<path id="path53" d="M182.452,82.042v-5.686h4.017v0.961h-2.922v1.262h2.719v0.957h-2.719v1.547h3.026v0.959H182.452
		L182.452,82.042z"/>
	<g id="g55">
		<path id="path57" d="M103.634,84.559h2.002c0.449,0,0.793,0.037,1.029,0.106c0.319,0.101,0.59,0.273,0.816,0.525
			c0.228,0.25,0.4,0.557,0.518,0.92c0.119,0.363,0.179,0.813,0.179,1.344c0,0.47-0.055,0.873-0.167,1.211
			c-0.135,0.414-0.328,0.748-0.582,1.006c-0.188,0.195-0.443,0.346-0.768,0.453c-0.239,0.08-0.564,0.121-0.969,0.121h-2.059
			L103.634,84.559L103.634,84.559L103.634,84.559z M104.727,85.524v3.763h0.816c0.309,0,0.527-0.018,0.663-0.055
			c0.179-0.047,0.324-0.123,0.442-0.234c0.115-0.112,0.211-0.297,0.285-0.551c0.076-0.254,0.111-0.602,0.111-1.041
			c0-0.438-0.035-0.776-0.111-1.014c-0.074-0.234-0.178-0.418-0.311-0.549c-0.133-0.132-0.303-0.223-0.506-0.27
			c-0.152-0.035-0.451-0.054-0.898-0.054h-0.491L104.727,85.524L104.727,85.524L104.727,85.524z"/>
		<path id="path59" d="M109.53,86.578l-0.197-1.057v-0.963h1.133v0.963l-0.171,1.057H109.53L109.53,86.578z"/>
		<path id="path61" d="M111.751,90.245v-5.688h1.094v5.688H111.751z"/>
		<path id="path63" d="M114.338,90.245v-5.688h1.063l2.219,3.797v-3.797h1.016v5.688h-1.096l-2.188-3.709v3.709H114.338z"/>
		<path id="path65" d="M122.755,88.157V87.2h2.357v2.264c-0.23,0.232-0.561,0.438-0.997,0.615c-0.435,0.178-0.876,0.266-1.321,0.266
			c-0.567,0-1.061-0.124-1.482-0.375c-0.421-0.248-0.738-0.604-0.948-1.07c-0.214-0.463-0.319-0.97-0.319-1.514
			c0-0.594,0.117-1.119,0.355-1.579c0.237-0.46,0.584-0.813,1.039-1.06c0.348-0.189,0.779-0.282,1.297-0.282
			c0.672,0,1.198,0.147,1.576,0.442c0.379,0.297,0.622,0.707,0.73,1.229l-1.086,0.213c-0.078-0.28-0.221-0.501-0.433-0.662
			c-0.21-0.161-0.472-0.241-0.788-0.241c-0.479,0-0.858,0.157-1.14,0.477c-0.283,0.318-0.425,0.789-0.425,1.415
			c0,0.675,0.144,1.183,0.43,1.521c0.285,0.338,0.66,0.506,1.123,0.506c0.23,0,0.459-0.049,0.69-0.143
			c0.229-0.094,0.429-0.208,0.593-0.342v-0.723H122.755L122.755,88.157L122.755,88.157z"/>
		<path id="path67" d="M126.561,90.245v-5.688h4.018v0.963h-2.924v1.26h2.721v0.957h-2.721v1.549h3.029v0.959H126.561
			L126.561,90.245L126.561,90.245z"/>
		<path id="path69" d="M132.061,90.245v-5.688h1.064l2.218,3.797v-3.797h1.017v5.688h-1.1l-2.184-3.709v3.709H132.061
			L132.061,90.245z"/>
		<path id="path71" d="M137.923,90.245v-5.688h1.094v5.688H137.923z"/>
		<path id="path73" d="M140.499,90.245v-5.688h4.017v0.963h-2.923v1.26h2.721v0.957h-2.721v1.549h3.028v0.959H140.499z"/>
		<path id="path75" d="M145.981,84.559h1.094v3.08c0,0.489,0.014,0.806,0.039,0.949c0.049,0.233,0.158,0.422,0.336,0.563
			c0.176,0.139,0.418,0.211,0.721,0.211c0.311,0,0.545-0.066,0.704-0.199c0.157-0.135,0.252-0.299,0.284-0.492
			c0.03-0.193,0.05-0.516,0.05-0.967v-3.146h1.096v2.986c0,0.685-0.033,1.166-0.09,1.446c-0.062,0.283-0.168,0.521-0.328,0.715
			c-0.158,0.193-0.373,0.349-0.637,0.464c-0.269,0.114-0.615,0.172-1.046,0.172c-0.518,0-0.908-0.063-1.177-0.187
			c-0.267-0.127-0.477-0.289-0.634-0.49c-0.155-0.2-0.258-0.41-0.305-0.631c-0.074-0.326-0.107-0.807-0.107-1.442L145.981,84.559
			L145.981,84.559L145.981,84.559L145.981,84.559z"/>
		<path id="path77" d="M151.899,90.245v-5.688h2.302c0.577,0,0.999,0.051,1.262,0.153c0.266,0.103,0.473,0.282,0.633,0.544
			c0.156,0.262,0.234,0.561,0.234,0.896c0,0.426-0.119,0.778-0.357,1.057c-0.238,0.279-0.598,0.453-1.072,0.525
			c0.236,0.146,0.434,0.305,0.587,0.479c0.153,0.174,0.36,0.48,0.622,0.923l0.662,1.108h-1.309l-0.791-1.236
			c-0.281-0.441-0.476-0.721-0.578-0.836c-0.104-0.115-0.215-0.194-0.328-0.237c-0.115-0.042-0.299-0.063-0.551-0.063h-0.223v2.375
			H151.899L151.899,90.245L151.899,90.245z M152.992,86.964h0.811c0.525,0,0.854-0.022,0.983-0.068
			c0.132-0.047,0.231-0.127,0.306-0.241c0.076-0.113,0.112-0.256,0.112-0.424c0-0.193-0.049-0.351-0.147-0.466
			c-0.096-0.116-0.232-0.192-0.41-0.226c-0.09-0.012-0.355-0.018-0.799-0.018h-0.854L152.992,86.964L152.992,86.964L152.992,86.964z
			"/>
		<path id="path79" d="M160.338,84.559h2.004c0.449,0,0.795,0.037,1.029,0.106c0.317,0.101,0.592,0.273,0.817,0.525
			c0.228,0.25,0.397,0.557,0.518,0.92c0.121,0.363,0.179,0.813,0.179,1.344c0,0.47-0.058,0.873-0.168,1.211
			c-0.137,0.414-0.328,0.748-0.58,1.006c-0.188,0.195-0.445,0.346-0.771,0.453c-0.239,0.08-0.563,0.121-0.968,0.121h-2.063v-5.687
			L160.338,84.559L160.338,84.559L160.338,84.559z M161.433,85.524v3.763h0.816c0.305,0,0.525-0.018,0.66-0.055
			c0.18-0.047,0.326-0.123,0.441-0.234c0.119-0.112,0.214-0.297,0.285-0.551c0.076-0.254,0.113-0.602,0.113-1.041
			c0-0.438-0.037-0.776-0.113-1.014c-0.071-0.234-0.176-0.418-0.31-0.549c-0.131-0.132-0.302-0.223-0.506-0.27
			c-0.153-0.035-0.452-0.054-0.897-0.054h-0.49L161.433,85.524L161.433,85.524L161.433,85.524z"/>
		<path id="path81" d="M166.25,90.245v-5.688h4.021v0.963h-2.927v1.26h2.722v0.957h-2.722v1.549h3.026v0.959H166.25z"/>
		<path id="path83" d="M174.284,90.245v-5.688h2.304c0.58,0,1,0.051,1.262,0.153c0.264,0.103,0.475,0.282,0.633,0.544
			c0.156,0.262,0.238,0.561,0.238,0.896c0,0.426-0.123,0.778-0.361,1.057c-0.24,0.279-0.596,0.453-1.07,0.525
			c0.234,0.146,0.432,0.305,0.584,0.479c0.154,0.174,0.363,0.48,0.625,0.923l0.659,1.108h-1.31l-0.793-1.236
			c-0.279-0.441-0.471-0.721-0.573-0.836c-0.104-0.115-0.216-0.194-0.332-0.237c-0.113-0.042-0.298-0.063-0.55-0.063h-0.221v2.375
			H174.284z M175.379,86.964h0.811c0.525,0,0.854-0.022,0.984-0.068c0.129-0.047,0.229-0.127,0.306-0.241
			c0.075-0.113,0.112-0.256,0.112-0.424c0-0.193-0.049-0.351-0.146-0.466c-0.098-0.116-0.232-0.192-0.412-0.226
			c-0.09-0.012-0.355-0.018-0.801-0.018h-0.854V86.964L175.379,86.964z"/>
		<path id="path85" d="M180.188,90.245v-5.688h4.018v0.963h-2.924v1.26h2.722v0.957h-2.722v1.549h3.026v0.959H180.188
			L180.188,90.245L180.188,90.245z"/>
		<path id="path87" d="M185.688,90.245v-5.688h1.063l2.219,3.797v-3.797h1.018v5.688h-1.098l-2.187-3.709v3.709H185.688
			L185.688,90.245z"/>
		<path id="path89" d="M191.592,90.245v-5.688h1.068l2.217,3.797v-3.797h1.018v5.688h-1.1l-2.187-3.709v3.709H191.592
			L191.592,90.245z"/>
		<path id="path91" d="M197.489,90.245v-5.688h4.021v0.963h-2.926v1.26h2.723v0.957h-2.723v1.549h3.026v0.959H197.489z"/>
		<path id="path93" d="M202.702,88.396l1.063-0.108c0.063,0.377,0.193,0.65,0.39,0.828c0.194,0.174,0.46,0.262,0.794,0.262
			c0.354,0,0.617-0.077,0.796-0.234c0.179-0.156,0.271-0.34,0.271-0.549c0-0.133-0.039-0.249-0.113-0.342
			c-0.076-0.094-0.207-0.178-0.395-0.246c-0.127-0.049-0.42-0.131-0.877-0.25c-0.586-0.152-0.998-0.34-1.234-0.563
			c-0.331-0.313-0.498-0.693-0.498-1.146c0-0.289,0.076-0.56,0.232-0.812c0.157-0.252,0.383-0.445,0.678-0.576
			c0.293-0.133,0.65-0.197,1.066-0.197c0.68,0,1.192,0.154,1.538,0.47c0.343,0.313,0.522,0.729,0.54,1.253l-1.097,0.051
			c-0.046-0.293-0.146-0.502-0.3-0.634c-0.153-0.125-0.385-0.188-0.693-0.188c-0.316,0-0.566,0.068-0.747,0.203
			c-0.114,0.09-0.173,0.207-0.173,0.354c0,0.136,0.052,0.251,0.163,0.347c0.137,0.121,0.474,0.246,1.006,0.381
			c0.53,0.131,0.926,0.267,1.181,0.408c0.256,0.143,0.455,0.334,0.6,0.576c0.143,0.245,0.217,0.547,0.217,0.906
			c0,0.326-0.086,0.633-0.26,0.916c-0.172,0.283-0.416,0.496-0.732,0.636c-0.314,0.14-0.709,0.206-1.178,0.206
			c-0.688,0-1.213-0.166-1.578-0.498C202.993,89.518,202.774,89.031,202.702,88.396L202.702,88.396L202.702,88.396z"/>
	</g>
</g>
</svg>
